<?xml version="1.0" standalone="no"?>
<!DOCTYPE svg PUBLIC "-//W3C//DTD SVG 20010904//EN"
 "http://www.w3.org/TR/2001/REC-SVG-20010904/DTD/svg10.dtd">
<svg version="1.0" xmlns="http://www.w3.org/2000/svg"
 width="816.000000pt" height="816.000000pt" viewBox="0 0 816.000000 816.000000"
 preserveAspectRatio="xMidYMid meet">
<metadata>
Created by potrace 1.14, written by Peter Selinger 2001-2017
</metadata>
<g transform="translate(0.000000,816.000000) scale(0.100000,-0.100000)"
fill="#000000" stroke="none">
<path d="M711 7889 c-266 -52 -499 -247 -601 -501 -54 -137 -60 -199 -60 -644
l0 -404 224 0 225 0 3 418 3 417 27 57 c55 118 164 200 292 219 37 6 1309 8
3296 7 3128 -3 3237 -4 3286 -22 71 -25 142 -81 186 -146 73 -107 69 64 66
-2321 l-3 -2144 -24 -58 c-28 -71 -115 -163 -182 -194 -86 -40 -137 -43 -821
-43 -427 0 -658 -3 -658 -10 0 -5 79 -377 175 -827 96 -449 174 -817 173 -819
-2 -1 -336 306 -743 682 l-740 683 -2030 3 -2030 3 -57 27 c-79 37 -142 98
-181 177 l-32 66 -3 197 -4 198 -225 0 -225 0 5 -217 c5 -229 11 -271 61 -395
42 -103 89 -171 186 -269 84 -85 108 -102 200 -147 194 -96 -34 -86 2196 -92
l1971 -5 755 -697 c416 -384 770 -709 786 -723 17 -14 57 -38 89 -53 50 -23
71 -27 148 -27 82 0 97 3 157 33 84 41 158 120 189 200 40 106 36 138 -125
882 -80 371 -146 678 -146 682 0 4 208 8 463 10 452 4 464 4 532 27 146 48
264 121 361 223 106 110 168 222 207 377 l22 86 0 2185 c0 2374 3 2237 -56
2391 -38 100 -95 187 -178 272 -112 117 -240 190 -395 227 -79 19 -145 20
-3401 19 -1832 -1 -3340 -5 -3364 -10z"/>
</g>
</svg>
